<svg width="24" height="24" viewBox="0 0 24 24" fill="none" xmlns="http://www.w3.org/2000/svg">
<path fill-rule="evenodd" clip-rule="evenodd" d="M15.9706 4.57396C13.1406 4.89489 11.0017 7.28811 10.9995 10.1363V10.4904C12.2294 9.00852 14.045 8.13743 15.9706 8.10543V9.97421C15.9707 10.2454 16.1257 10.4928 16.3697 10.6112C16.6137 10.7296 16.904 10.6982 17.1171 10.5304L21.744 6.87592C21.9084 6.74656 22.0044 6.54891 22.0044 6.33969C22.0044 6.13048 21.9084 5.93283 21.744 5.80347L17.1171 2.14995C16.9043 1.98142 16.6139 1.9495 16.3696 2.0678C16.1253 2.1861 15.9703 2.43376 15.9706 2.70518V4.57396Z" stroke="#04446B" stroke-width="1.5" stroke-linecap="round" stroke-linejoin="round"/>
<path d="M21.0041 11.9998V16.0015C21.0041 18.7641 18.7646 21.0036 16.002 21.0036H7.99867C5.23609 21.0036 2.99658 18.7641 2.99658 16.0015V7.99818C2.99658 5.2356 5.23609 2.99609 7.99867 2.99609H10.9999" stroke="#04446B" stroke-width="1.5" stroke-linecap="round" stroke-linejoin="round"/>
</svg>
